<svg width="50" height="56" viewBox="0 0 50 56" fill="none" xmlns="http://www.w3.org/2000/svg">
<path d="M44.4444 50.4H5.55556V19.6H44.4444M36.1111 0V5.6H13.8889V0H8.33333V5.6H5.55556C2.47222 5.6 0 8.092 0 11.2V50.4C0 51.8852 0.585316 53.3096 1.62718 54.3598C2.66905 55.41 4.08213 56 5.55556 56H44.4444C45.9179 56 47.3309 55.41 48.3728 54.3598C49.4147 53.3096 50 51.8852 50 50.4V11.2C50 9.71479 49.4147 8.29041 48.3728 7.2402C47.3309 6.19 45.9179 5.6 44.4444 5.6H41.6667V0M38.8889 30.8H25V44.8H38.8889V30.8Z" fill="black"/>
</svg>
