<svg width="50" height="42" viewBox="0 0 50 42" fill="none" xmlns="http://www.w3.org/2000/svg">
<path d="M47.9167 0H2.08333C1.5308 0 1.00089 0.221249 0.610194 0.615076C0.219493 1.0089 0 1.54305 0 2.1L0 39.9C0 40.457 0.219493 40.9911 0.610194 41.3849C1.00089 41.7788 1.5308 42 2.08333 42H47.9167C48.4692 42 48.9991 41.7788 49.3898 41.3849C49.7805 40.9911 50 40.457 50 39.9V2.1C50 1.54305 49.7805 1.0089 49.3898 0.615076C48.9991 0.221249 48.4692 0 47.9167 0ZM45.8333 37.8H41.6667V35.7H31.25V37.8H4.16667V4.2H45.8333V37.8ZM21.4375 16.191C21.4375 15.2386 21.8128 14.3252 22.4809 13.6518C23.149 12.9783 24.0552 12.6 25 12.6C26.9792 12.6 28.5625 14.217 28.5625 16.191C28.5625 18.186 26.9792 19.803 25 19.803C23.0208 19.803 21.4375 18.186 21.4375 16.191ZM11.8958 19.509C11.8958 18.018 13.1042 16.8 14.5833 16.8C15.2961 16.8 15.9797 17.0854 16.4837 17.5934C16.9877 18.1015 17.2708 18.7905 17.2708 19.509C17.2708 21 16.0625 22.197 14.5833 22.197C13.1042 22.197 11.8958 21 11.8958 19.509ZM32.7292 19.509C32.7292 18.7905 33.0123 18.1015 33.5163 17.5934C34.0203 17.0854 34.7039 16.8 35.4167 16.8C36.1294 16.8 36.813 17.0854 37.317 17.5934C37.821 18.1015 38.1042 18.7905 38.1042 19.509C38.1042 21 36.8958 22.197 35.4167 22.197C33.9375 22.197 32.7292 21 32.7292 19.509ZM41.6667 27.594V29.4H8.33333V27.594C8.33333 25.62 11.5625 24.003 14.5833 24.003C15.7292 24.003 16.8958 24.234 17.9167 24.633C19.4792 23.184 22.2917 22.197 25 22.197C27.7083 22.197 30.5208 23.184 32.0833 24.633C33.1042 24.234 34.2708 24.003 35.4167 24.003C38.4375 24.003 41.6667 25.62 41.6667 27.594Z" fill="black"/>
</svg>
