<svg width="50" height="55" viewBox="0 0 50 55" fill="none" xmlns="http://www.w3.org/2000/svg">
<path d="M2.77778 30.5556H19.4444C20.9722 30.5556 22.2222 29.1806 22.2222 27.5V3.05556C22.2222 1.375 20.9722 0 19.4444 0H2.77778C1.25 0 0 1.375 0 3.05556V27.5C0 29.1806 1.25 30.5556 2.77778 30.5556ZM2.77778 55H19.4444C20.9722 55 22.2222 53.625 22.2222 51.9444V39.7222C22.2222 38.0417 20.9722 36.6667 19.4444 36.6667H2.77778C1.25 36.6667 0 38.0417 0 39.7222V51.9444C0 53.625 1.25 55 2.77778 55ZM30.5556 55H47.2222C48.75 55 50 53.625 50 51.9444V27.5C50 25.8194 48.75 24.4444 47.2222 24.4444H30.5556C29.0278 24.4444 27.7778 25.8194 27.7778 27.5V51.9444C27.7778 53.625 29.0278 55 30.5556 55ZM27.7778 3.05556V15.2778C27.7778 16.9583 29.0278 18.3333 30.5556 18.3333H47.2222C48.75 18.3333 50 16.9583 50 15.2778V3.05556C50 1.375 48.75 0 47.2222 0H30.5556C29.0278 0 27.7778 1.375 27.7778 3.05556Z" fill="black"/>
</svg>
