<svg width="50" height="50" viewBox="0 0 50 50" fill="none" xmlns="http://www.w3.org/2000/svg">
<path d="M0 50V38.1944L36.6667 1.59722C37.2222 1.08796 37.8361 0.694445 38.5083 0.416667C39.1805 0.138889 39.8861 0 40.625 0C41.3639 0 42.0815 0.138889 42.7778 0.416667C43.4741 0.694445 44.0759 1.11111 44.5833 1.66667L48.4028 5.55556C48.9583 6.06481 49.3639 6.66667 49.6194 7.36111C49.875 8.05556 50.0018 8.75 50 9.44444C50 10.1852 49.8731 10.8917 49.6194 11.5639C49.3657 12.2361 48.9602 12.8491 48.4028 13.4028L11.8056 50H0ZM40.5555 13.3333L44.4444 9.44444L40.5555 5.55556L36.6667 9.44444L40.5555 13.3333Z" fill="black"/>
</svg>
