<svg width="50" height="50" viewBox="0 0 50 50" fill="none" xmlns="http://www.w3.org/2000/svg">
<path fill-rule="evenodd" clip-rule="evenodd" d="M13.6389 0.639016L0.639014 13.6473V13.6195C0.433393 13.8283 0.271089 14.0757 0.161443 14.3474C0.0517964 14.6191 -0.00302666 14.9099 0.000128871 15.2029V34.7973C0.000128871 35.4084 0.22235 35.9639 0.639014 36.3806L13.6112 49.3611C14.0278 49.7778 14.6112 50 15.1945 50H34.8055C35.4166 50 35.9722 49.7778 36.3888 49.3611L49.361 36.3806C49.5666 36.1718 49.7289 35.9245 49.8386 35.6527C49.9482 35.381 50.003 35.0903 49.9999 34.7973V15.2029C49.9999 14.5918 49.7776 14.0362 49.361 13.6195L36.3888 0.639016C36.1801 0.433395 35.9327 0.27109 35.661 0.161443C35.3892 0.0517966 35.0985 -0.00302667 34.8055 0.000128871H15.2223C14.6112 0.000128871 14.0556 0.222351 13.6389 0.639016ZM25 11.1112C25.7367 11.1112 26.4432 11.4039 26.9642 11.9248C27.4851 12.4457 27.7778 13.1523 27.7778 13.889V27.7778C27.7778 28.5145 27.4851 29.2211 26.9642 29.742C26.4432 30.263 25.7367 30.5556 25 30.5556C24.2633 30.5556 23.5568 30.263 23.0358 29.742C22.5149 29.2211 22.2222 28.5145 22.2222 27.7778V13.889C22.2222 13.1523 22.5149 12.4457 23.0358 11.9248C23.5568 11.4039 24.2633 11.1112 25 11.1112ZM22.2222 36.1111C22.2222 35.3744 22.5149 34.6679 23.0358 34.147C23.5568 33.626 24.2633 33.3334 25 33.3334H25.0222C25.7589 33.3334 26.4655 33.626 26.9864 34.147C27.5073 34.6679 27.8 35.3744 27.8 36.1111C27.8 36.8479 27.5073 37.5544 26.9864 38.0753C26.4655 38.5963 25.7589 38.8889 25.0222 38.8889H25C24.2633 38.8889 23.5568 38.5963 23.0358 38.0753C22.5149 37.5544 22.2222 36.8479 22.2222 36.1111Z" fill="black"/>
</svg>
