<svg width="50" height="38" viewBox="0 0 50 38" fill="none" xmlns="http://www.w3.org/2000/svg">
<path d="M5 38C3.625 38 2.44833 37.5353 1.47 36.6059C0.491667 35.6765 0.00166667 34.5578 0 33.25V4.75C0 3.44375 0.49 2.32592 1.47 1.3965C2.45 0.467083 3.62667 0.00158333 5 0H45C46.375 0 47.5525 0.4655 48.5325 1.3965C49.5125 2.3275 50.0017 3.44533 50 4.75V33.25C50 34.5562 49.5108 35.6749 48.5325 36.6059C47.5542 37.5369 46.3767 38.0016 45 38H5ZM25 21.375L5 9.5V33.25H45V9.5L25 21.375ZM25 16.625L45 4.75H5L25 16.625ZM5 9.5V4.75V33.25V9.5Z" fill="black"/>
</svg>
