<svg width="50" height="50" viewBox="0 0 50 50" fill="none" xmlns="http://www.w3.org/2000/svg">
<path d="M33.926 4.32203e-07C31.4166 -0.000575056 28.9419 0.586681 26.7002 1.71471C24.4586 2.84274 22.5124 4.48017 21.0175 6.49579C19.5226 8.51142 18.5206 10.8492 18.0919 13.3217C17.6632 15.7943 17.8196 18.3329 18.5486 20.7342L0 39.2828V49.9963H10.7135L29.2621 31.4477C31.4725 32.1186 33.8015 32.3051 36.0905 31.9945C38.3795 31.6839 40.5746 30.8835 42.5263 29.6479C44.478 28.4122 46.1403 26.7703 47.4 24.834C48.6598 22.8978 49.4872 20.7128 49.8261 18.4278C50.165 16.1428 50.0073 13.8116 49.3638 11.5931C48.7202 9.37464 47.606 7.32094 46.0969 5.57201C44.5879 3.82309 42.7196 2.42004 40.6192 1.45848C38.5189 0.496925 36.236 -0.00053527 33.926 4.32203e-07ZM33.926 28.5693C32.6967 28.569 31.4741 28.3873 30.2977 28.0301L28.2497 27.4087L26.7373 28.9211L21.0574 34.601L18.595 32.1405L16.0702 34.6653L18.5325 37.1276L15.7006 39.9595L13.2383 37.4972L10.7135 40.022L13.1758 42.4843L9.23503 46.4251H3.57116V40.7612L21.0734 23.259L22.5876 21.7466L21.9662 19.6985C21.203 17.1826 21.2526 14.4901 22.1079 12.004C22.9632 9.51795 24.5807 7.36486 26.7302 5.85104C28.8798 4.33722 31.4519 3.53977 34.0808 3.57211C36.7097 3.60445 39.2615 4.46495 41.3732 6.03119C43.4848 7.59743 45.0488 9.78966 45.8427 12.296C46.6366 14.8024 46.6199 17.4953 45.7951 19.9917C44.9702 22.4881 43.3792 24.6607 41.2483 26.2007C39.1174 27.7407 36.5551 28.5695 33.926 28.5693Z" fill="black"/>
<path d="M35.7118 17.8562C37.6841 17.8562 39.2829 16.2573 39.2829 14.285C39.2829 12.3127 37.6841 10.7139 35.7118 10.7139C33.7395 10.7139 32.1406 12.3127 32.1406 14.285C32.1406 16.2573 33.7395 17.8562 35.7118 17.8562Z" fill="black"/>
</svg>
