<svg width="52" height="27" viewBox="0 0 52 27" fill="none" xmlns="http://www.w3.org/2000/svg">
<mask id="mask0_1061_1936" style="mask-type:luminance" maskUnits="userSpaceOnUse" x="0" y="0" width="52" height="27">
<path d="M26 1H38.5C45.4 1 51 6.6 51 13.5C51 20.4 45.4 26 38.5 26H13.5C6.6 26 1 20.4 1 13.5C1 6.6 6.6 1 13.5 1H26Z" fill="white" stroke="white" stroke-width="2" stroke-linecap="round" stroke-linejoin="round"/>
<path d="M13.5 21C17.6421 21 21 17.6421 21 13.5C21 9.35786 17.6421 6 13.5 6C9.35786 6 6 9.35786 6 13.5C6 17.6421 9.35786 21 13.5 21Z" fill="black"/>
</mask>
<g mask="url(#mask0_1061_1936)">
<path d="M56 -16.5H-4V43.5H56V-16.5Z" fill="black"/>
</g>
</svg>
