<svg width="50" height="54" viewBox="0 0 50 54" fill="none" xmlns="http://www.w3.org/2000/svg">
<path d="M25 0C22.253 0 19.5678 0.833432 17.2837 2.39491C14.9997 3.95638 13.2196 6.17576 12.1683 8.77239C11.1171 11.369 10.8421 14.2263 11.378 16.9829C11.9139 19.7394 13.2367 22.2715 15.1791 24.2589C17.1215 26.2463 19.5962 27.5997 22.2904 28.148C24.9846 28.6963 27.7772 28.4149 30.315 27.3393C32.8529 26.2638 35.0221 24.4424 36.5482 22.1055C38.0743 19.7686 38.8889 17.0211 38.8889 14.2105C38.8889 10.4417 37.4256 6.82716 34.8209 4.16217C32.2163 1.49718 28.6836 0 25 0ZM25 22.7368C23.3518 22.7368 21.7407 22.2368 20.3702 21.2999C18.9998 20.363 17.9317 19.0314 17.301 17.4734C16.6703 15.9154 16.5052 14.2011 16.8268 12.5471C17.1483 10.8932 17.942 9.37394 19.1074 8.18151C20.2729 6.98908 21.7577 6.17703 23.3742 5.84804C24.9908 5.51905 26.6663 5.6879 28.189 6.33324C29.7117 6.97857 31.0132 8.07141 31.9289 9.47356C32.8446 10.8757 33.3333 12.5242 33.3333 14.2105C33.3333 16.4718 32.4554 18.6405 30.8926 20.2395C29.3298 21.8385 27.2101 22.7368 25 22.7368ZM50 54V51.1579C50 45.8815 47.9514 40.8212 44.3049 37.0902C40.6583 33.3592 35.7125 31.2632 30.5556 31.2632H19.4444C14.2875 31.2632 9.34169 33.3592 5.69515 37.0902C2.0486 40.8212 0 45.8815 0 51.1579V54H5.55556V51.1579C5.55556 47.389 7.01884 43.7745 9.62352 41.1095C12.2282 38.4445 15.7609 36.9474 19.4444 36.9474H30.5556C34.2391 36.9474 37.7718 38.4445 40.3765 41.1095C42.9812 43.7745 44.4444 47.389 44.4444 51.1579V54H50Z" fill="black"/>
</svg>
